<svg width="60" height="60" viewBox="0 0 60 60" fill="none" xmlns="http://www.w3.org/2000/svg">
<path fill-rule="evenodd" clip-rule="evenodd" d="M30.5023 59.4727C25.6843 59.5588 21.1428 58.5453 16.8774 56.4322C12.7613 54.4159 9.3195 51.5667 6.55195 47.8843C2.62652 42.6303 0.609995 36.8447 0.502326 30.5273C0.363288 22.3695 3.12081 15.3665 8.77497 9.51837C14.4291 3.67021 21.3366 0.673228 29.4977 0.527335C37.6588 0.381441 44.6642 3.1297 50.5142 8.77221C56.3642 14.4147 59.3587 21.3148 59.4977 29.4727C59.6367 37.6306 56.8792 44.6335 51.2251 50.4816C45.5709 56.3298 38.6634 59.3268 30.5023 59.4727Z" fill="white" stroke="#222222"/>
<path fill-rule="evenodd" clip-rule="evenodd" d="M30.2212 47.7899L31.1799 47.7728C35.9979 47.6867 40.0856 45.8721 43.4431 42.329C46.8006 38.7858 48.4373 34.552 48.3534 29.6274C48.2695 24.7028 46.4894 20.5301 43.0132 17.1092C39.537 13.6882 35.39 12.0208 30.572 12.107L29.6133 12.1241L29.6235 12.721L26.0838 12.7843C24.8123 13.2051 23.6646 13.6734 22.6407 14.1893L29.6464 14.0641L29.6591 14.8102L21.4735 14.9566C20.8894 15.3153 20.2825 15.774 19.6527 16.3326L29.682 16.1533L29.6934 16.8248L18.853 17.0186C18.2732 17.6261 17.863 18.0812 17.6222 18.3841L29.7163 18.1679L29.7278 18.8394L17.0437 19.0662C16.7063 19.4703 16.3948 19.9485 16.1092 20.501L29.7519 20.2571L29.7634 20.9286L15.6782 21.1804L15.0374 22.5354L29.7863 22.2717L29.7977 22.9432L14.7538 23.2122C14.658 23.3632 14.5515 23.6014 14.4341 23.9269C14.3167 24.2525 14.2347 24.4903 14.188 24.6404L29.8219 24.3609L29.8346 25.1071L14.0533 25.3892C14.0066 25.5393 13.949 25.7642 13.8803 26.064C13.8117 26.3638 13.754 26.5887 13.7074 26.7388L29.8575 26.4501L29.8689 27.1217L13.6451 27.4117C13.557 28.0104 13.5154 28.4589 13.5205 28.7574L29.8918 28.4647L29.9033 29.1363L13.4582 29.4302L13.4824 30.8479L29.9274 30.5539L29.9389 31.2255L13.4938 31.5195C13.4964 31.6687 13.5125 31.8923 13.5422 32.1903C13.5718 32.4883 13.6125 32.7115 13.6642 32.8599L29.9618 32.5685L29.9732 33.2401L13.8231 33.5288C13.9316 34.1239 14.0376 34.5699 14.141 34.8666L29.9961 34.5831L30.0088 35.3293L14.375 35.6088L14.8403 36.9439L30.0317 36.6723L30.0432 37.3439L15.1468 37.6102L15.8333 38.9414L30.066 38.6869L30.0775 39.3585L16.2873 39.605C16.5907 40.0972 16.8933 40.5396 17.1951 40.9322L30.1004 40.7015L30.1131 41.4477L17.724 41.6692C17.874 41.8158 18.0868 42.0359 18.3623 42.3295C18.6378 42.6231 18.8505 42.8432 19.0006 42.9898L30.136 42.7908L30.1474 43.4623L19.7494 43.6482C20.3479 44.1351 20.9455 44.5722 21.5422 44.9596L30.1703 44.8054L30.1818 45.4769L22.6598 45.6114C23.5041 46.0938 24.4458 46.5248 25.485 46.9043L30.2047 46.82L30.2212 47.7899Z" fill="#222222"/>
</svg>
